HIERARCHY
ROOT SpineBase
{
  OFFSET 0.000000 0.000000 0.000000
  CHANNELS 6 Xposition Yposition Zposition Zrotation Xrotation Yrotation
  JOINT SpineMid
  {
    OFFSET 0.000000 27.098818 0.000000
    CHANNELS 3 Zrotation Xrotation Yrotation
    JOINT SpineShoulder
    {
      OFFSET -0.041691 20.155827 -0.691152
      CHANNELS 3 Zrotation Xrotation Yrotation
      JOINT Neck
      {
        OFFSET -0.036251 6.690493 -0.524561
        CHANNELS 3 Zrotation Xrotation Yrotation
        JOINT Head
        {
          OFFSET 2.104759 12.323209 0.639157
          CHANNELS 3 Zrotation Xrotation Yrotation
          End Site
          {
            OFFSET 0 0 0
          }
        }
      }
      JOINT ShoulderLeft
      {
        OFFSET -12.848364 -2.114196 -7.889751
        CHANNELS 3 Zrotation Xrotation Yrotation
        JOINT ElbowLeft
        {
          OFFSET -3.995620 -21.795389 -3.733226
          CHANNELS 3 Zrotation Xrotation Yrotation
          JOINT WristLeft
          {
            OFFSET 2.266965 -20.316800 -5.291665
            CHANNELS 3 Zrotation Xrotation Yrotation
            JOINT HandLeft
            {
              OFFSET 1.321731 -6.428728 -0.615665
              CHANNELS 3 Zrotation Xrotation Yrotation
              JOINT HandTipLeft
              {
                OFFSET 0.615781 -6.420085 -0.003384
                CHANNELS 3 Zrotation Xrotation Yrotation
                End Site
                {
                  OFFSET 0 0 0
                }
              }
              JOINT ThumbLeft
              {
                OFFSET -3.221114 -0.439455 -1.380155
                CHANNELS 3 Zrotation Xrotation Yrotation
                End Site
                {
                  OFFSET 0 0 0
                }
              }
            }
          }
        }
      }
      JOINT ShoulderRight
      {
        OFFSET 11.039295 -2.764462 3.778726
        CHANNELS 3 Zrotation Xrotation Yrotation
        JOINT ElbowRight
        {
          OFFSET 1.814600 -27.394381 2.618626
          CHANNELS 3 Zrotation Xrotation Yrotation
          JOINT WristRight
          {
            OFFSET 2.863641 -20.286227 -5.932058
            CHANNELS 3 Zrotation Xrotation Yrotation
            JOINT HandRight
            {
              OFFSET -2.108863 -5.452352 -1.217510
              CHANNELS 3 Zrotation Xrotation Yrotation
              JOINT HandTipRight
              {
                OFFSET -0.309538 -4.577896 -0.127560
                CHANNELS 3 Zrotation Xrotation Yrotation
                End Site
                {
                  OFFSET 0 0 0
                }
              }
              JOINT ThumbRight
              {
                OFFSET -2.720922 1.425838 -3.176462
                CHANNELS 3 Zrotation Xrotation Yrotation
                End Site
                {
                  OFFSET 0 0 0
                }
              }
            }
          }
        }
      }
    }
  }
  JOINT HipLeft
  {
    OFFSET -5.860816 0.982684 -5.553453
    CHANNELS 3 Zrotation Xrotation Yrotation
    JOINT KneeLeft
    {
      OFFSET -4.856036 -29.358170 -1.128018
      CHANNELS 3 Zrotation Xrotation Yrotation
      JOINT AnkleLeft
      {
        OFFSET -0.041919 -32.685851 7.296343
        CHANNELS 3 Zrotation Xrotation Yrotation
        JOINT FootLeft
        {
          OFFSET 3.077482 -2.214240 -9.704369
          CHANNELS 3 Zrotation Xrotation Yrotation
          End Site
          {
            OFFSET 0 0 0
          }
        }
      }
    }
  }
  JOINT HipRight
  {
    OFFSET 5.441213 0.651835 -0.731361
    CHANNELS 3 Zrotation Xrotation Yrotation
    JOINT KneeRight
    {
      OFFSET -3.507008 -27.308804 -0.354631
      CHANNELS 3 Zrotation Xrotation Yrotation
      JOINT AnkleRight
      {
        OFFSET -6.912741 -35.526798 4.138530
        CHANNELS 3 Zrotation Xrotation Yrotation
        JOINT FootRight
        {
          OFFSET 2.025909 -3.959199 -5.043952
          CHANNELS 3 Zrotation Xrotation Yrotation
          End Site
          {
            OFFSET 0 0 0
          }
        }
      }
    }
  }
}
MOTION
Frames: 15
Frame Time: 0.033333
25.056585 67.245980 369.169472 -0.000000 0.000000 -23.105867 0.000000 0.000000 23.105867 -0.000000 0.000000 0.000000 -0.000000 0.000000 0.000000 0.000000 0.000000 0.000000 -0.000000 0.000000 0.000000 -0.000000 0.000000 0.000000 -0.000000 0.000000 0.000000 -0.000000 0.000000 0.000000 0.000000 0.000000 0.000000 0.000000 0.000000 0.000000 -0.000000 0.000000 0.000000 -0.000000 0.000000 0.000000 -0.000000 0.000000 0.000000 -0.000000 0.000000 0.000000 0.000000 0.000000 0.000000 0.000000 0.000000 0.000000 0.000000 0.000000 23.105867 -0.000000 0.000000 0.000000 -0.000000 0.000000 0.000000 0.000000 0.000000 0.000000 0.000000 0.000000 23.105867 -0.000000 0.000000 0.000000 -0.000000 0.000000 0.000000 0.000000 0.000000 0.000000
25.041743 67.235309 369.132101 -0.010073 -0.015212 -23.115127 0.003293 0.017945 23.115125 -0.000000 0.000000 0.000000 -0.000000 0.000000 0.000000 0.000000 0.000000 0.000000 -0.000000 0.000000 0.000000 -0.000000 0.000000 0.000000 -0.000000 0.000000 0.000000 0.850511 -0.019584 -0.002180 0.000000 0.000000 0.000000 0.000000 0.000000 0.000000 -0.000000 0.000000 0.000000 -0.000000 0.000000 0.000000 -0.000000 0.000000 0.000000 -0.871681 1.401712 -0.059779 0.000000 0.000000 0.000000 0.000000 0.000000 0.000000 0.003293 0.017945 23.115125 -0.000000 0.000000 0.000000 -0.000000 0.000000 0.000000 0.000000 0.000000 0.000000 -0.200308 -1.716719 23.317853 1.101624 2.362923 -0.364701 4.232175 8.464711 -0.962880 0.000000 0.000000 0.000000
25.026691 67.225315 369.091513 -0.017377 -0.018924 -23.150550 0.008538 0.024232 23.150546 -0.000000 0.000000 0.000000 -0.000000 0.000000 0.000000 0.000000 0.000000 0.000000 -0.000000 0.000000 0.000000 -0.000000 0.000000 0.000000 -0.000000 0.000000 0.000000 1.499714 0.055344 0.003789 0.000000 0.000000 0.000000 0.000000 0.000000 0.000000 -0.000000 0.000000 0.000000 -0.000000 0.000000 0.000000 -0.614819 -0.496684 0.326372 -1.085892 3.168880 -0.409509 0.000000 0.000000 0.000000 0.000000 0.000000 0.000000 0.008538 0.024232 23.150546 -0.000000 0.000000 0.000000 -0.000000 0.000000 0.000000 0.000000 0.000000 0.000000 -0.306583 -2.791959 23.477346 1.811021 4.004252 -0.644070 6.319724 13.321077 -1.180394 0.000000 0.000000 0.000000
25.011431 67.215999 369.047708 -0.021910 -0.011127 -23.212158 0.015750 0.018862 23.212153 -0.000000 0.000000 0.000000 -0.000000 0.000000 0.000000 0.000000 0.000000 0.000000 -0.000000 0.000000 0.000000 -0.000000 0.000000 0.000000 -0.000000 0.000000 0.000000 1.952293 0.224392 0.016643 0.000000 0.000000 0.000000 0.000000 0.000000 0.000000 -0.000000 0.000000 0.000000 -0.000000 0.000000 0.000000 -0.761180 -0.605398 0.399554 -1.746161 4.401483 -0.482937 0.000000 0.000000 0.000000 0.000000 0.000000 0.000000 0.015750 0.018862 23.212153 -0.000000 0.000000 0.000000 -0.000000 0.000000 0.000000 0.000000 0.000000 0.000000 -0.343456 -3.402202 23.608444 2.184759 4.999060 -0.823304 7.012002 16.288883 -0.659182 0.000000 0.000000 0.000000
24.995961 67.207359 369.000687 -0.023667 0.008186 -23.299927 0.024975 0.001844 23.299928 -0.000000 0.000000 0.000000 0.807978 0.106084 -0.060845 0.000000 0.000000 0.000000 -0.000000 0.000000 0.000000 0.290642 0.762507 0.007433 -0.757662 -1.631325 -0.155250 2.675153 1.362433 0.133168 0.000000 0.000000 0.000000 0.000000 0.000000 0.000000 -0.000000 0.000000 0.000000 0.723957 -0.414337 -0.267616 -1.524557 -0.214169 0.692886 -2.485771 5.387337 -0.478781 0.000000 0.000000 0.000000 0.000000 0.000000 0.000000 0.024975 0.001844 23.299928 -0.000000 0.000000 0.000000 -0.000000 0.000000 0.000000 0.000000 0.000000 0.000000 -0.322487 -3.634438 23.722441 2.243901 5.361654 -0.890940 6.661874 18.205821 0.563009 0.000000 0.000000 0.000000
24.980282 67.199396 368.950449 -0.022649 0.039020 -23.413788 0.036290 -0.026807 23.413804 -0.000000 0.000000 0.000000 0.865720 0.034660 -0.051149 0.000000 0.000000 0.000000 -0.000000 0.000000 0.000000 0.354130 0.896157 0.004978 -1.104589 -2.140807 -0.215020 3.021838 2.100653 0.189948 0.000000 0.000000 0.000000 0.000000 0.000000 0.000000 -0.000000 0.000000 0.000000 0.846350 -0.560506 -0.322599 -1.584142 0.005917 0.709655 -3.303010 6.119926 -0.405297 0.000000 0.000000 0.000000 0.000000 0.000000 0.000000 0.036290 -0.026807 23.413804 -0.470920 -0.689211 -0.106927 0.469667 0.690065 0.101266 0.000000 0.000000 0.000000 -0.247386 -3.518586 23.822959 1.997280 5.093361 -0.843565 5.359742 19.418181 2.550811 0.000000 0.000000 0.000000
24.969480 67.188853 368.903830 -0.012555 0.088013 -23.607958 0.046751 -0.075619 23.607999 -0.000000 0.000000 0.000000 0.820600 -0.123496 -0.020611 0.000000 0.000000 0.000000 -0.000000 0.000000 0.000000 0.435900 1.053404 0.000002 -1.870808 -3.187328 -0.364175 3.355396 3.618121 0.318911 0.000000 0.000000 0.000000 0.000000 0.000000 0.000000 -0.000000 0.000000 0.000000 0.904949 -0.709489 -0.359429 -1.127327 -0.100445 0.732354 -4.826775 6.111208 -0.272653 0.000000 0.000000 0.000000 0.000000 0.000000 0.000000 0.046751 -0.075619 23.607999 -0.438803 -0.807249 -0.099851 0.437439 0.807989 0.093676 0.000000 0.000000 0.000000 -0.081482 -2.501974 23.897940 1.004103 3.351989 -0.551854 3.535747 23.673038 6.182977 0.000000 0.000000 0.000000
24.950161 67.180025 368.847018 0.007160 0.138173 -23.785466 0.049175 -0.129325 23.785513 -0.000000 0.000000 0.000000 -0.000000 0.000000 0.000000 0.000000 0.000000 0.000000 -0.000000 0.000000 0.000000 0.490583 1.164817 -0.002779 -2.146054 -3.608093 -0.422262 2.734443 5.015799 0.484055 0.000000 0.000000 0.000000 0.000000 0.000000 0.000000 -0.000000 0.000000 0.000000 1.003726 -0.990821 -0.425253 -1.011201 0.983191 0.442609 -5.887252 6.655084 0.056005 0.000000 0.000000 0.000000 0.000000 0.000000 0.000000 0.049175 -0.129325 23.785513 -0.319894 -0.904042 -0.072645 0.318787 0.904433 0.067605 0.000000 0.000000 0.000000 0.049175 -0.129325 23.785513 -0.000000 0.000000 0.000000 -4.067707 16.924826 12.342408 0.000000 0.000000 0.000000
24.927413 67.176402 368.776566 0.004646 0.206159 -23.966638 0.079498 -0.190271 23.966762 -0.000000 0.000000 0.000000 -0.000000 0.000000 0.000000 0.000000 0.000000 0.000000 -0.000000 0.000000 0.000000 0.524983 1.212478 -0.006975 -2.220797 -3.265517 -0.331822 2.889176 4.992155 0.436830 0.000000 0.000000 0.000000 0.000000 0.000000 0.000000 -0.000000 0.000000 0.000000 1.100449 -1.271778 -0.490044 -1.239150 2.187623 0.187271 -4.603115 7.571608 0.160943 0.000000 0.000000 0.000000 0.000000 0.000000 0.000000 0.079498 -0.190271 23.966762 -0.282457 -1.008749 -0.064119 0.281372 1.009052 0.059154 0.000000 0.000000 0.000000 0.079498 -0.190271 23.966762 -0.681809 -0.465931 0.008449 -8.761132 12.754288 17.616646 0.000000 0.000000 0.000000
24.900742 67.176735 368.701239 -0.009301 0.278102 -24.135676 0.122205 -0.249987 24.135965 -0.000000 0.000000 0.000000 -0.000000 0.000000 0.000000 0.000000 0.000000 0.000000 -0.000000 0.000000 0.000000 0.555418 1.207104 -0.015768 -2.681276 -3.269886 -0.301263 2.791291 5.247797 0.444887 0.000000 0.000000 0.000000 0.000000 0.000000 0.000000 -0.000000 0.000000 0.000000 1.175869 -1.420463 -0.530957 -1.440975 3.317268 -0.113420 -3.587628 4.748685 0.436026 0.000000 0.000000 0.000000 0.000000 0.000000 0.000000 0.122205 -0.249987 24.135965 -0.329360 -0.999998 -0.074967 0.328101 1.000412 0.069229 0.000000 0.000000 0.000000 0.840225 1.312174 23.966901 -2.161796 -2.001604 0.192054 -11.541389 10.130741 20.529129 0.000000 0.000000 0.000000
24.889555 67.188449 368.643196 -0.009922 0.314339 -24.255394 0.138180 -0.282514 24.255761 -0.000000 0.000000 0.000000 0.533869 -0.610675 0.079543 0.000000 0.000000 0.000000 -0.000000 0.000000 0.000000 0.571195 1.201259 -0.020651 -3.142481 -3.564184 -0.340155 3.079847 6.260705 0.521903 0.000000 0.000000 0.000000 0.000000 0.000000 0.000000 -0.000000 0.000000 0.000000 1.190727 -1.348142 -0.525541 -1.372867 4.000389 -0.431793 -3.845542 5.935117 0.636375 0.000000 0.000000 0.000000 0.000000 0.000000 0.000000 0.138180 -0.282514 24.255761 -0.432597 -0.868670 -0.098566 0.431152 0.869388 0.092015 0.000000 0.000000 0.000000 0.828679 1.608706 24.044185 -2.307183 -2.512285 0.255598 -12.014412 9.903969 21.078100 0.000000 0.000000 0.000000
24.878712 67.195584 368.604821 -0.037562 0.327188 -24.287764 0.168818 -0.282778 24.288288 -0.000000 0.000000 0.000000 0.621061 -0.594852 0.072698 0.000000 0.000000 0.000000 -0.000000 0.000000 0.000000 0.551209 1.179232 -0.017599 -3.028401 -3.924373 -0.434330 2.297064 6.628418 0.655594 0.000000 0.000000 0.000000 0.000000 0.000000 0.000000 -0.000000 0.000000 0.000000 1.135557 -1.216980 -0.492643 -0.565108 3.313861 -0.450998 -2.952508 8.320919 0.418399 0.000000 0.000000 0.000000 0.000000 0.000000 0.000000 0.168818 -0.282778 24.288288 -0.659771 -0.644424 -0.149974 0.658124 0.646107 0.142553 0.000000 0.000000 0.000000 1.302244 1.607130 24.089936 -2.891261 -2.234277 0.194070 -9.789654 12.118969 19.140975 0.000000 0.000000 0.000000
24.910684 67.217217 368.609386 -0.000467 0.263932 -24.204634 0.108638 -0.240538 24.204864 -0.000000 0.000000 0.000000 0.680907 -0.444591 0.043313 0.000000 0.000000 0.000000 -0.000000 0.000000 0.000000 0.580509 1.118987 -0.031908 -3.152591 -4.470131 -0.551772 2.114317 7.302215 0.789773 0.000000 0.000000 0.000000 0.000000 0.000000 0.000000 -0.000000 0.000000 0.000000 1.059395 -1.081539 -0.453129 0.145987 3.817136 -0.910704 -1.283847 6.689352 0.665668 0.000000 0.000000 0.000000 0.000000 0.000000 0.000000 0.108638 -0.240538 24.204864 -0.870699 -0.421975 -0.196868 0.869268 0.424915 0.190438 0.000000 0.000000 0.000000 1.198434 0.817121 24.114196 -2.501736 -1.159747 0.061889 -5.317565 16.139906 14.817594 0.000000 0.000000 0.000000
24.969173 67.261761 368.636485 0.095050 0.181396 -24.232211 -0.012224 -0.204425 24.232038 -0.000000 0.000000 0.000000 -0.000000 0.000000 0.000000 0.000000 0.000000 0.000000 -0.000000 0.000000 0.000000 0.501914 1.102955 -0.012450 -3.010056 -5.337622 -0.775418 2.551869 8.186174 0.911644 0.000000 0.000000 0.000000 0.000000 0.000000 0.000000 -0.000000 0.000000 0.000000 0.980088 -0.930719 -0.410504 1.008929 4.058530 -1.319236 -1.162481 6.685534 0.887385 0.000000 0.000000 0.000000 0.000000 0.000000 0.000000 -0.012224 -0.204425 24.232038 -1.088999 -0.191016 -0.244577 1.088180 0.195628 0.240904 0.000000 0.000000 0.000000 0.791691 0.226027 24.212017 -1.923403 -0.507236 -0.017301 3.440894 22.846777 6.362019 0.000000 0.000000 0.000000
25.022013 67.295286 368.646717 0.179353 0.133240 -24.105816 -0.109294 -0.194872 24.105422 -0.000000 0.000000 0.000000 -0.000000 0.000000 0.000000 0.000000 0.000000 0.000000 -0.000000 0.000000 0.000000 0.398885 1.022917 0.006669 -2.316165 -5.285364 -0.818476 1.702099 6.499827 0.856959 0.000000 0.000000 0.000000 0.000000 0.000000 0.000000 -0.000000 0.000000 0.000000 0.932327 -0.741830 -0.371594 1.160211 5.206928 -1.920984 0.361217 5.350893 1.363804 0.000000 0.000000 0.000000 0.000000 0.000000 0.000000 -0.109294 -0.194872 24.105422 -1.257824 -0.000823 -0.280794 1.257805 0.006986 0.280708 0.000000 0.000000 0.000000 -0.109294 -0.194872 24.105422 -0.904747 -0.633666 0.012871 2.789085 21.272960 6.362593 0.000000 0.000000 0.000000
